<svg xmlns="http://www.w3.org/2000/svg" viewBox="0 0 775.5 191.34">
  <defs>
    <style>
      @media (prefers-color-scheme: dark) {
        .cls-1 { fill: #c00; }
        .cls-2 { fill: #000; }
      }

      @media (prefers-color-scheme: light) {
        .cls-1 { fill: #c00; }
        .cls-2 { fill: #fff; }
      }
      .cls-1 { fill: #c00; }
      .cls-2 { fill: #2496ed; }
    </style>
  </defs>
  <title>railsdock</title>
  <path class="cls-1" d="M442.9,154.74V172h31.18c6.39,0,17.36-4.67,17.74-17.74v-6.68a17.61,17.61,0,0,0-17.74-17.73H458.54v-8h30.8V104.48H459.78c-7.63,0-17.84,6.29-17.84,18v6c0,11.73,10.11,17.74,17.84,17.74,21.46.1-5.15,0,14.69,0v8.39"/>
  <path class="cls-1" d="M275.81,150.54s16.69-1.43,16.69-23S272.28,104,272.28,104H235.85v68h18.31V155.6L270,172h27.08Zm-7.06-13.92H254.16V121.07h14.68s4.1,1.53,4.1,7.73S268.75,136.62,268.75,136.62Z"/>
  <path class="cls-1" d="M337.7,104.48H319.1c-13.25,0-17.73,12-17.73,17.74V172H320V160.08h17.46V172h18V122.22C355.44,107.72,342.28,104.48,337.7,104.48Zm-.28,36.33H319.87v-16.5s0-3.72,5.82-3.72h6.39c5.15,0,5.24,3.72,5.24,3.72v16.5Z"/>
  <rect class="cls-1" x="363.93" y="104.48" width="19.36" height="67.52"/>
  <polygon class="cls-1" points="410.47 154.55 410.47 104.48 391.21 104.48 391.21 154.55 391.21 172 410.47 172 436.51 172 436.51 154.55 410.47 154.55"/>
  <path class="cls-1" d="M26.09,98.6h56S71.35,49.8,106.77,30c7.72-3.75,32.3-17.78,72.53,12,1.28-1.06,2.48-1.91,2.48-1.91S145,3.33,103.94,7.44C83.33,9.28,58,28.05,43.09,52.84S26.09,98.6,26.09,98.6Z"/>
  <path class="cls-1" d="M26.09,98.6h56S71.35,49.8,106.77,30c7.72-3.75,32.3-17.78,72.53,12,1.28-1.06,2.48-1.91,2.48-1.91S145,3.33,103.94,7.44C83.33,9.28,58,28.05,43.09,52.84S26.09,98.6,26.09,98.6Z"/>
  <path class="cls-1" d="M26.09,98.6h56S71.35,49.8,106.77,30c7.72-3.75,32.3-17.78,72.53,12,1.28-1.06,2.48-1.91,2.48-1.91S145,3.33,103.94,7.44C83.25,9.28,57.9,28.05,43,52.84S26.09,98.6,26.09,98.6Z"/>
  <path class="cls-1" d="M142.68,11.4,143,6.66a34,34,0,0,0-6.87-2.48l-.29,4.67C138.15,9.63,140.42,10.48,142.68,11.4Z"/>
  <path class="cls-1" d="M136,26.42l-.28,4.46a39.83,39.83,0,0,1,7,.85l.29-4.39A50.85,50.85,0,0,0,136,26.42Z"/>
  <path class="cls-1" d="M109.75,4.32h.7L109,0a55.19,55.19,0,0,0-6.8.43l1.34,4.17A60.65,60.65,0,0,1,109.75,4.32Z"/>
  <path class="cls-1" d="M113.15,30.39l1.63,4.89a42.42,42.42,0,0,1,6.16-2.48l-1.56-4.68A51.28,51.28,0,0,0,113.15,30.39Z"/>
  <path class="cls-1" d="M81,11.76,77.8,6.87c-1.77.92-3.61,1.91-5.52,3.05l3.25,5C77.38,13.74,79.15,12.68,81,11.76Z"/>
  <path class="cls-1" d="M95.51,43.63l3.4,5.1a39,39,0,0,1,4.18-5L99.9,38.89A38.79,38.79,0,0,0,95.51,43.63Z"/>
  <path class="cls-1" d="M85.24,66.44,91,71a55.69,55.69,0,0,1,1.48-8.29l-5.1-4A66.09,66.09,0,0,0,85.24,66.44Z"/>
  <path class="cls-1" d="M54.21,32.8l-5-4.4c-1.84,1.78-3.61,3.55-5.24,5.32l5.46,4.67A70.29,70.29,0,0,1,54.21,32.8Z"/>
  <path class="cls-1" d="M32.82,64.46l-8.14-3c-1.35,3.05-2.84,6.59-3.55,8.5l8.15,3C30.2,70.55,31.69,67.08,32.82,64.46Z"/>
  <path class="cls-1" d="M84.18,84.43A70.61,70.61,0,0,0,85,93.36l8.5,3a91.63,91.63,0,0,1-1.7-9.2Z"/>
  <path class="cls-2" d="M561.14,74.7a6.2,6.2,0,0,0-6.4,6v31.16a34.87,34.87,0,1,0,12.85,28.06c0-.39,0-.78,0-1.18V81.13a6.08,6.08,0,0,0-1.87-4.59,6.33,6.33,0,0,0-4.58-1.81M553,147a22,22,0,0,1-11.46,11.54,21.57,21.57,0,1,1,0-39.69A21.92,21.92,0,0,1,553,130.42a21.25,21.25,0,0,1,0,16.67"/>
  <path class="cls-2" d="M633.06,114.34a34.85,34.85,0,1,0,10.1,25.54V138.7a35.61,35.61,0,0,0-2.55-13.22,33.72,33.72,0,0,0-7.55-11.14M628.62,147a22.47,22.47,0,0,1-4.62,6.86,22.24,22.24,0,0,1-6.86,4.68,21.56,21.56,0,1,1,0-39.66,22.24,22.24,0,0,1,6.86,4.68,22.47,22.47,0,0,1,4.62,6.86,21.43,21.43,0,0,1,0,16.67"/>
  <path class="cls-2" d="M775.49,110.65a5.93,5.93,0,0,0-.51-2.46,7.19,7.19,0,0,0-1.4-2,6.2,6.2,0,0,0-2-1.39,6.63,6.63,0,0,0-2.53-.49,6.2,6.2,0,0,0-3.44,1l-36.78,23.93V81.19A6.25,6.25,0,0,0,727,76.61a6.14,6.14,0,0,0-4.55-1.91A6.41,6.41,0,0,0,716,81.08v85.58a6.27,6.27,0,0,0,1.87,4.55,6.2,6.2,0,0,0,4.58,1.91,6.13,6.13,0,0,0,4.53-1.91,6.28,6.28,0,0,0,1.88-4.55V144.49l7.5-4.92,28.43,31.92a6,6,0,0,0,4.3,1.66,6.26,6.26,0,0,0,2.52-.5,5.85,5.85,0,0,0,2-1.37,6.94,6.94,0,0,0,1.4-2.07,6,6,0,0,0,.51-2.46,6.47,6.47,0,0,0-1.78-4.49l-26.42-29.77L773,115.76a5.72,5.72,0,0,0,2.46-5.11"/>
  <path class="cls-2" d="M668.77,123.42a22.18,22.18,0,0,1,6.9-4.62,21.17,21.17,0,0,1,8.42-1.68,20.49,20.49,0,0,1,7.51,1.34,23.22,23.22,0,0,1,6.57,4,6.56,6.56,0,0,0,4.19,1.42,6.19,6.19,0,0,0,4.64-1.8,6.37,6.37,0,0,0,1.82-4.62,6.3,6.3,0,0,0-2.22-4.86,32.85,32.85,0,0,0-22.46-8.37,34.47,34.47,0,1,0,22.46,60.56,6.49,6.49,0,0,0,2-4.73,6.19,6.19,0,0,0-6-6.39h-.41a6.85,6.85,0,0,0-4.07,1.34,21.7,21.7,0,0,1-6.52,4,20.62,20.62,0,0,1-7.5,1.32,21.17,21.17,0,0,1-8.42-1.68,22.35,22.35,0,0,1-6.9-4.62,21.56,21.56,0,0,1-.09-30.48l.09-.09"/>
  <path class="cls-2" d="M230.9,87.17c-.63-.5-6.54-5-19-5a60.9,60.9,0,0,0-9.81.84C199.69,66.54,186,58.48,185.42,58.12l-3.34-1.93-2.2,3.18a44.89,44.89,0,0,0-5.94,13.89c-2.23,9.43-.88,18.29,3.91,25.86-5.78,3.22-15.06,4-16.94,4.09H7.3A7.29,7.29,0,0,0,0,110.47a110.47,110.47,0,0,0,6.73,39.47C12,163.82,19.9,174,30.14,180.29c11.48,7,30.13,11.05,51.27,11.05a152.72,152.72,0,0,0,28.46-2.58A119.15,119.15,0,0,0,147,175.26a102.14,102.14,0,0,0,25.35-20.75c12.17-13.78,19.42-29.12,24.81-42.76h2.15c13.33,0,21.52-5.33,26-9.8a28.44,28.44,0,0,0,6.87-10.17L233.2,89Z"/>
</svg>